# xmcd
#
# Track frame offsets:
#	150
#	18761
#	30908
#	43439
#	55841
#	68451
#	82129
#	96993
#	109182
#	121416
#
# Disc length: 1843 seconds
#
# Revision: 0
# Processed by: cddbd v1.5.2PL0 Copyright (c) Steve Scherf et al.
# Submitted via: EZCDAudioConverter 2.1.7.1
#
DISCID=7d07310a
DTITLE=Tobias Wood Henderson - Blue Stone
DYEAR=1968
DGENRE=Blues
TTITLE0=Color Blind Man
TTITLE1=Turn Me Loose
TTITLE2=Be A Fool
TTITLE3=The Price Of Love
TTITLE4=Gypsy Boy I
TTITLE5=Child Of Darkness
TTITLE6=Woman Of The World
TTITLE7=Big Brothers Message
TTITLE8=Why Can't You Do Right
TTITLE9=Gypsy Boy II
EXTD=
EXTT0=
EXTT1=
EXTT2=
EXTT3=
EXTT4=
EXTT5=
EXTT6=
EXTT7=
EXTT8=
EXTT9=
PLAYORDER=
